<svg width="32" height="33" viewBox="0 0 32 33" fill="none" xmlns="http://www.w3.org/2000/svg">
<path d="M0 16.1348C0 7.29843 7.16326 0.134766 15.9996 0.134766C24.8359 0.134766 31.9992 7.29843 31.9992 16.1348C31.9992 24.9711 24.8359 32.1348 15.9996 32.1348C7.16326 32.1348 0 24.9711 0 16.1348Z" fill="#666666"/>
<path d="M12.6672 16.1348C12.6672 14.2939 14.1591 12.8012 16 12.8012C17.8409 12.8012 19.3336 14.2939 19.3336 16.1348C19.3336 17.9756 17.8409 19.4684 16 19.4684C14.1591 19.4684 12.6672 17.9756 12.6672 16.1348ZM10.8651 16.1348C10.8651 18.9708 13.164 21.2696 16 21.2696C18.836 21.2696 21.1349 18.9708 21.1349 16.1348C21.1349 13.2988 18.836 10.9999 16 10.9999C13.164 10.9999 10.8651 13.2988 10.8651 16.1348ZM20.1382 10.7963C20.1381 11.0336 20.2084 11.2657 20.3401 11.4631C20.4719 11.6604 20.6593 11.8143 20.8785 11.9052C21.0977 11.9962 21.339 12.02 21.5718 11.9738C21.8046 11.9276 22.0185 11.8134 22.1863 11.6456C22.3542 11.4779 22.4686 11.2641 22.515 11.0313C22.5614 10.7986 22.5377 10.5573 22.447 10.338C22.3563 10.1187 22.2025 9.93121 22.0052 9.79927C21.808 9.66733 21.576 9.59686 21.3386 9.59677H21.3382C21.02 9.59691 20.715 9.72332 20.49 9.94823C20.265 10.1731 20.1384 10.4782 20.1382 10.7963ZM11.96 24.2745C10.985 24.2301 10.4551 24.0677 10.103 23.9305C9.63608 23.7488 9.30296 23.5323 8.95272 23.1825C8.60248 22.8328 8.38568 22.5 8.20472 22.0331C8.06744 21.6811 7.90504 21.151 7.86072 20.176C7.81224 19.122 7.80256 18.8053 7.80256 16.1348C7.80256 13.4644 7.81304 13.1486 7.86072 12.0936C7.90512 11.1187 8.06872 10.5896 8.20472 10.2366C8.38648 9.76973 8.60296 9.43661 8.95272 9.08637C9.30248 8.73613 9.63528 8.51933 10.103 8.33837C10.455 8.20109 10.985 8.03869 11.96 7.99437C13.0141 7.94589 13.3307 7.93621 16 7.93621C18.6693 7.93621 18.9862 7.94669 20.0412 7.99437C21.0162 8.03877 21.5452 8.20237 21.8982 8.33837C22.3651 8.51933 22.6982 8.73661 23.0485 9.08637C23.3987 9.43613 23.6147 9.76973 23.7965 10.2366C23.9338 10.5886 24.0962 11.1187 24.1405 12.0936C24.189 13.1486 24.1986 13.4644 24.1986 16.1348C24.1986 18.8053 24.189 19.1211 24.1405 20.176C24.0961 21.151 23.9329 21.6809 23.7965 22.0331C23.6147 22.5 23.3982 22.8331 23.0485 23.1825C22.6987 23.532 22.3651 23.7488 21.8982 23.9305C21.5462 24.0678 21.0162 24.2302 20.0412 24.2745C18.9871 24.323 18.6705 24.3327 16 24.3327C13.3295 24.3327 13.0138 24.323 11.96 24.2745ZM11.8772 6.19533C10.8126 6.24381 10.0852 6.41261 9.44992 6.65981C8.792 6.91509 8.23504 7.25757 7.67848 7.81325C7.12192 8.36893 6.78032 8.92677 6.52504 9.58469C6.27784 10.2204 6.10904 10.9474 6.06056 12.012C6.01128 13.0782 6 13.4191 6 16.1348C6 18.8504 6.01128 19.1913 6.06056 20.2576C6.10904 21.3222 6.27784 22.0492 6.52504 22.6848C6.78032 23.3424 7.122 23.9008 7.67848 24.4563C8.23496 25.0117 8.792 25.3537 9.44992 25.6097C10.0864 25.8569 10.8126 26.0257 11.8772 26.0742C12.944 26.1227 13.2843 26.1348 16 26.1348C18.7157 26.1348 19.0566 26.1235 20.1228 26.0742C21.1874 26.0257 21.9144 25.8569 22.5501 25.6097C23.2076 25.3537 23.765 25.012 24.3215 24.4563C24.8781 23.9006 25.219 23.3424 25.475 22.6848C25.7222 22.0492 25.8918 21.3221 25.9394 20.2576C25.9879 19.1905 25.9992 18.8504 25.9992 16.1348C25.9992 13.4191 25.9879 13.0782 25.9394 12.012C25.891 10.9473 25.7222 10.22 25.475 9.58469C25.219 8.92717 24.8772 8.36981 24.3215 7.81325C23.7658 7.25669 23.2076 6.91509 22.5509 6.65981C21.9144 6.41261 21.1874 6.24301 20.1236 6.19533C19.0574 6.14685 18.7165 6.13477 16.0008 6.13477C13.2851 6.13477 12.944 6.14605 11.8772 6.19533Z" fill="white"/>
</svg>
