<svg width="32" height="25" viewBox="0 0 32 25" fill="none" xmlns="http://www.w3.org/2000/svg">
<g clip-path="url(#clip0_775_4046)">
<path d="M26.8667 14.0689C26.8518 14.0239 26.8337 13.9802 26.8125 13.9379C26.7853 13.8836 26.7582 13.8293 26.731 13.775C26.6316 13.5761 26.6055 13.3502 26.6313 13.1293C26.6665 12.8284 26.6665 12.55 26.6665 12.2237C26.6665 10.8014 26.3998 9.46811 25.8665 8.22366C25.3332 6.97922 24.5332 5.82366 23.5554 4.84589C22.5776 3.86811 21.422 3.06811 20.0887 2.53478C18.8443 2.00144 17.422 1.73478 15.9998 1.73478C15.8164 1.73478 15.591 1.73478 15.3813 1.73478C15.2042 1.73478 15.0311 1.68617 14.8746 1.60345C13.8741 1.07484 12.7974 0.845886 11.6443 0.845886C9.7776 0.845886 7.99983 1.557 6.66649 2.80144C5.42205 4.13478 4.71094 5.82366 4.71094 7.69033C4.71094 8.71972 4.92255 9.67857 5.34578 10.5669C5.4467 10.7787 5.48165 11.016 5.45674 11.2493C5.42205 11.5741 5.42205 11.8989 5.42205 12.2237C5.42205 13.6459 5.68872 14.9792 6.22205 16.2237C6.75538 17.4681 7.55538 18.6237 8.53316 19.6014C9.51094 20.5792 10.6665 21.3792 11.9998 21.9126C13.2443 22.4459 14.6665 22.7126 16.0887 22.7126C16.3161 22.7126 16.5435 22.7126 16.7709 22.6893C17.0206 22.6638 17.2762 22.6936 17.504 22.7992C18.4023 23.2155 19.4233 23.4237 20.4443 23.4237C21.3332 23.4237 22.222 23.2459 23.1109 22.8903C23.9109 22.5348 24.7109 22.0014 25.3332 21.3792C25.9554 20.757 26.4887 19.957 26.8443 19.157C27.1998 18.357 27.3776 17.4681 27.3776 16.4903C27.3776 15.7127 27.1257 14.8512 26.8667 14.0689Z" stroke="#333333" stroke-width="2"/>
<path d="M13.2445 11.8681C12.8 11.6015 12.5334 11.2459 12.2667 10.8015C12 10.357 11.9111 9.91257 11.9111 9.37924C11.9111 8.75702 12.0889 8.13479 12.5334 7.69035C12.9778 7.24591 13.5111 6.89035 14.1334 6.62368C14.7556 6.35702 15.4667 6.26813 16.1778 6.26813C16.6222 6.26813 17.0667 6.26813 17.5111 6.35702C17.8667 6.44591 18.1334 6.44591 18.4889 6.62368C18.7556 6.71257 19.0222 6.89035 19.2 7.06813C19.3778 7.24591 19.4667 7.51257 19.4667 7.69035C19.4667 7.77924 19.4667 7.95702 19.3778 8.0459C19.3778 8.13479 19.2889 8.22368 19.2 8.31257C19.1111 8.40146 19.0222 8.49035 18.9334 8.49035C18.8445 8.49035 18.7556 8.57924 18.5778 8.57924C18.4 8.57924 18.3111 8.57924 18.1334 8.49035C17.7778 8.31257 17.4222 8.22368 17.0667 8.13479C16.7111 8.0459 16.3556 8.0459 16 8.0459C15.5556 8.0459 15.1111 8.13479 14.6667 8.40146C14.4889 8.49035 14.4 8.66813 14.3111 8.84591C14.2222 9.02368 14.1334 9.20146 14.2222 9.37924C14.2222 9.6459 14.3111 9.91257 14.4889 10.0903C14.6667 10.2681 14.9334 10.4459 15.2 10.6237C15.4667 10.8015 16 10.9792 16.5334 11.2459C16.6222 11.2459 16.6222 11.3348 16.7111 11.3348C17.3334 11.6015 17.8667 11.8681 18.4 12.2237C18.8445 12.4903 19.2 12.8459 19.4667 13.2903C19.7334 13.7348 19.8222 14.2681 19.8222 14.8015C19.8222 15.4237 19.6445 16.0459 19.2889 16.5792C18.9334 17.1126 18.4 17.4681 17.8667 17.6459C17.1556 17.9126 16.4445 18.0015 15.6445 18.0015C14.6667 18.0015 13.6 17.8237 12.7111 17.4681C12.4445 17.3792 12.2667 17.2015 12.0889 17.0237C12 16.5792 11.9111 16.3126 11.9111 16.1348C11.9111 16.0459 11.9111 15.8681 12 15.7792C12.0889 15.6903 12.0889 15.6015 12.1778 15.5126C12.3556 15.2459 12.6222 15.2459 12.8889 15.2459C13.1556 15.2459 13.4222 15.3348 13.6889 15.4237C13.9556 15.6015 14.2222 15.6903 14.4 15.7792C14.5778 15.8681 14.8445 15.957 15.0222 15.957C15.2889 16.0459 15.5556 16.0459 15.8222 16.0459C16.2667 16.0459 16.8 15.957 17.1556 15.6903C17.3334 15.6015 17.4222 15.4237 17.5111 15.2459C17.6 15.0681 17.6 14.8903 17.6 14.7126C17.6 14.4459 17.5111 14.1792 17.3334 14.0015C17.0667 13.7348 16.8 13.557 16.5334 13.3792C16.1778 13.2015 15.6445 12.9348 15.0222 12.6681C14.3111 12.4903 13.7778 12.2237 13.2445 11.8681Z" fill="#333333"/>
</g>
<defs>
<clipPath id="clip0_775_4046">
<rect width="24" height="24" fill="white" transform="translate(4 0.134766)"/>
</clipPath>
</defs>
</svg>
