<svg width="32" height="33" viewBox="0 0 32 33" fill="none" xmlns="http://www.w3.org/2000/svg">
<path d="M0 16.1348C0 7.29821 7.16344 0.134766 16 0.134766C24.8366 0.134766 32 7.29821 32 16.1348C32 24.9713 24.8366 32.1348 16 32.1348C7.16344 32.1348 0 24.9713 0 16.1348Z" fill="#666666"/>
<path d="M0 16.1348C0 7.29821 7.16344 0.134766 16 0.134766C24.8366 0.134766 32 7.29821 32 16.1348C32 24.9713 24.8366 32.1348 16 32.1348C7.16344 32.1348 0 24.9713 0 16.1348Z" fill="#666666"/>
<path fill-rule="evenodd" clip-rule="evenodd" d="M28.0003 16.4018C28.0003 15.5851 27.9323 14.7685 27.7962 13.9685H16.249V18.585H22.8644C22.5923 20.0683 21.708 21.4016 20.4155 22.2349V25.2348H24.361C26.6738 23.1516 28.0003 20.0683 28.0003 16.4018Z" fill="white"/>
<path fill-rule="evenodd" clip-rule="evenodd" d="M16.2485 28.1348C19.5477 28.1348 22.3367 27.0681 24.3604 25.2349L20.415 22.2349C19.3096 22.9683 17.8981 23.3849 16.2485 23.3849C13.0513 23.3849 10.3473 21.2683 9.37795 18.4351H5.31348V21.535C7.38823 25.5848 11.6228 28.1348 16.2485 28.1348Z" fill="white"/>
<path fill-rule="evenodd" clip-rule="evenodd" d="M9.37821 18.4351C8.86802 16.9518 8.86802 15.3351 9.37821 13.8352V10.752H5.31373C3.56209 14.1352 3.56209 18.1351 5.31373 21.5183L9.37821 18.4351Z" fill="white"/>
<path fill-rule="evenodd" clip-rule="evenodd" d="M16.2484 8.88535C18.0001 8.85202 19.6837 9.502 20.9422 10.6853L24.4454 7.25206C22.2176 5.21879 19.2926 4.10216 16.2484 4.13549C11.6228 4.13549 7.38823 6.70208 5.31348 10.752L9.37795 13.8519C10.3473 11.0019 13.0513 8.88535 16.2484 8.88535Z" fill="white"/>
</svg>
