<svg width="32" height="33" viewBox="0 0 32 33" fill="none" xmlns="http://www.w3.org/2000/svg">
<path d="M0 16.1348C0 7.29821 7.16344 0.134766 16 0.134766C24.8366 0.134766 32 7.29821 32 16.1348C32 24.9713 24.8366 32.1348 16 32.1348C7.16344 32.1348 0 24.9713 0 16.1348Z" fill="#666666"/>
<path d="M0 16.1348C0 7.29821 7.16344 0.134766 16 0.134766C24.8366 0.134766 32 7.29821 32 16.1348C32 24.9713 24.8366 32.1348 16 32.1348C7.16344 32.1348 0 24.9713 0 16.1348Z" fill="#666666"/>
<path d="M17.4908 26.1347V17.0117H20.4391L20.8805 13.4563H17.4908V11.1863C17.4908 10.157 17.766 9.45545 19.1873 9.45545L21 9.45458V6.27471C20.6864 6.23154 19.6104 6.13477 18.3586 6.13477C15.7452 6.13477 13.9559 7.79158 13.9559 10.8344V13.4564H11V17.0118H13.9558V26.1348L17.4908 26.1347Z" fill="white"/>
</svg>
