<svg width="25" height="25" viewBox="0 0 25 25" fill="none" xmlns="http://www.w3.org/2000/svg">
<path d="M12.2296 1.93896C12.4133 1.57513 12.9318 1.57222 13.1196 1.93396L16.2988 8.05694C16.3738 8.20135 16.5143 8.30024 16.6756 8.32203L23.6829 9.26915C24.0989 9.32538 24.2646 9.83821 23.9602 10.1272L18.945 14.889C18.8225 15.0054 18.767 15.1758 18.7975 15.342L20.0282 22.0397C20.1027 22.4453 19.6817 22.7617 19.3128 22.5773L12.999 19.4213C12.8565 19.35 12.6885 19.351 12.5468 19.4238L6.26884 22.6506C5.90203 22.8392 5.47755 22.5275 5.54751 22.1211L6.70279 15.41C6.73146 15.2434 6.67407 15.0737 6.55021 14.9587L1.48179 10.2536C1.17415 9.96799 1.3341 9.45332 1.74943 9.39243L8.7457 8.3666C8.9067 8.343 9.04613 8.24253 9.11948 8.09729L12.2296 1.93896Z" fill="#FFCD1B"/>
</svg>
