<svg width="25" height="25" viewBox="0 0 25 25" fill="none" xmlns="http://www.w3.org/2000/svg">
<path d="M11.7677 1.93896C11.9514 1.57513 12.4699 1.57222 12.6577 1.93396L15.8369 8.05694C15.9118 8.20135 16.0524 8.30024 16.2136 8.32203L23.221 9.26915C23.637 9.32538 23.8027 9.83821 23.4983 10.1272L18.4831 14.889C18.3605 15.0054 18.3051 15.1758 18.3356 15.342L19.5662 22.0397C19.6408 22.4453 19.2198 22.7617 18.8509 22.5773L12.537 19.4213C12.3945 19.35 12.2266 19.351 12.0849 19.4238L5.80692 22.6506C5.44011 22.8392 5.01563 22.5275 5.0856 22.1211L6.24088 15.41C6.26955 15.2434 6.21215 15.0737 6.0883 14.9587L1.01988 10.2536C0.712234 9.96799 0.872187 9.45332 1.28752 9.39243L8.28379 8.3666C8.44478 8.343 8.58422 8.24253 8.65757 8.09729L11.7677 1.93896Z" fill="#CCCCCC"/>
</svg>
