<svg width="24" height="22" viewBox="0 0 24 22" fill="none" xmlns="http://www.w3.org/2000/svg">
<path d="M11.2296 0.938965C11.4133 0.575131 11.9318 0.572217 12.1196 0.933962L15.2988 7.05694C15.3738 7.20135 15.5143 7.30024 15.6756 7.32203L22.6829 8.26915C23.0989 8.32538 23.2646 8.83821 22.9602 9.12724L17.945 13.889C17.8225 14.0054 17.767 14.1758 17.7975 14.342L19.0282 21.0397C19.1027 21.4453 18.6817 21.7617 18.3128 21.5773L11.999 18.4213C11.8565 18.35 11.6885 18.351 11.5468 18.4238L5.26884 21.6506C4.90203 21.8392 4.47755 21.5275 4.54751 21.1211L5.70279 14.41C5.73146 14.2434 5.67407 14.0737 5.55021 13.9587L0.481793 9.25358C0.174148 8.96799 0.334101 8.45332 0.749431 8.39243L7.7457 7.3666C7.9067 7.343 8.04613 7.24253 8.11948 7.09729L11.2296 0.938965Z" fill="#FFCD1B"/>
</svg>
